<svg id="Layer_2" data-name="Layer 2" xmlns="http://www.w3.org/2000/svg" viewBox="0 0 230.52 259.85"><defs><style>.cls-1{fill:#ad1f24;}</style></defs><path class="cls-1" d="M209,78.35c-10.09-7.16-23.35-11.1-37.36-11.1s-27.26,3.94-37.35,11.1c-10.94,7.77-17,18.39-17,29.89s6,22.12,17,29.89c10.09,7.16,23.35,11.1,37.35,11.1s27.27-3.94,37.36-11.1c10.93-7.77,17-18.39,17-29.89S219.93,86.12,209,78.35Zm-37.36,55.11c-21.09,0-38.91-11.55-38.91-25.22S150.55,83,171.64,83s38.92,11.55,38.92,25.22S192.74,133.46,171.64,133.46Z" transform="translate(-15.28)"/><path class="cls-1" d="M192.33,29.34c-15.1-4.53-31.61-5.88-46.75-.85C131.1,33.3,118.47,42.52,104,47.3a121.79,121.79,0,0,1-20.43,4.82C68,54.37,50.23,54,36.78,44.69,23.89,35.78,15,15.43,21.36,0,14.22,17.34,11.2,39.26,24.58,54.38,48,80.82,89.2,74.42,117.3,60.57,131.22,53.7,145,45.9,160.36,43c28-5.22,72.3.93,85.43,31.48C235.74,51.12,215.77,36.38,192.33,29.34Z" transform="translate(-15.28)"/><path class="cls-1" d="M88.27,141.4c-5.1-22.85.91-59,30.75-69.75C96.17,79.86,81.77,96.16,74.9,115.3c-4.43,12.32-5.74,25.81-.83,38.17,4.7,11.82,13.7,22.13,18.37,34a85.62,85.62,0,0,1,4.7,16.69c2.2,12.67,1.83,27.19-7.25,38.16-8.7,10.53-28.58,17.79-43.65,12.59,16.94,5.84,38.34,8.3,53.11-2.63,25.82-19.1,19.58-52.75,6.05-75.69C98.69,165.19,91.07,154,88.27,141.4Z" transform="translate(-15.28)"/></svg>