<svg id="Layer_1" data-name="Layer 1" xmlns="http://www.w3.org/2000/svg" viewBox="0 0 147.69 73.42"><defs><style>.cls-1{fill:#ad1f25;}</style></defs><path class="cls-1" d="M121.38,146a4.69,4.69,0,0,1-1.27,2.84,8.7,8.7,0,0,1-3.84,2.52,14.17,14.17,0,0,1-5,1,9.63,9.63,0,0,1-3.84-.63,54.88,54.88,0,0,1-4.07,5.67,8.63,8.63,0,0,1-6.4,2.74,4.45,4.45,0,0,1-3.17-1,3.45,3.45,0,0,1-1-2.61,6.66,6.66,0,0,1,6.55-6.33,3.48,3.48,0,0,1,2,.56,1.93,1.93,0,0,1,.82,1.71,3.18,3.18,0,0,1-.84,1.83c-.57.71-.91,1.06-1,1.06s0,0,0-.1a.34.34,0,0,1,.08-.2,4.05,4.05,0,0,0,.79-2.2,2,2,0,0,0-.6-1.55,2.21,2.21,0,0,0-1.51-.55,4.68,4.68,0,0,0-3.68,1.95,6.13,6.13,0,0,0-1.6,3.92,2.79,2.79,0,0,0,.78,2.06,3.26,3.26,0,0,0,2.42.79,7.28,7.28,0,0,0,5.24-2.11,15.11,15.11,0,0,0,2.55-3.56l2.16-4a58.3,58.3,0,0,0,3.7-7.77h-.45a30.9,30.9,0,0,0-6.72.75,12.56,12.56,0,0,0-5.12,2.14,1.6,1.6,0,0,0-.74,1.15,1,1,0,0,0,.58.9,2.67,2.67,0,0,0,1.38.34,7.81,7.81,0,0,0,2-.31,4.41,4.41,0,0,0,1.78-.86.75.75,0,0,1,.35-.2c.13,0,.15.07.07.2a5.42,5.42,0,0,1-2.71,1.61,7.72,7.72,0,0,1-2.2.33,3,3,0,0,1-1.79-.5,1.58,1.58,0,0,1-.7-1.35,2.44,2.44,0,0,1,.9-1.71q1.68-1.68,6-2.49a40.13,40.13,0,0,1,7.07-.56h.67a1.61,1.61,0,0,1,1-.48c.3,0,.45.11.45.35a1.41,1.41,0,0,1,0,.18,19.52,19.52,0,0,1,6.23,1.32C120.43,143.65,121.38,144.71,121.38,146Zm-1.17-.26c0-1.06-.84-1.94-2.53-2.61a17.34,17.34,0,0,0-5.54-1.07l-.79,2.54a45.69,45.69,0,0,1-3.62,6.66,4.42,4.42,0,0,0,.84.28,9.19,9.19,0,0,0,1.54.18,14.14,14.14,0,0,0,4.34-.81,10.86,10.86,0,0,0,4.11-2.33A4.2,4.2,0,0,0,120.21,145.76Z" transform="translate(-51.24 -91.62)"/><path class="cls-1" d="M124.87,157.53a3.21,3.21,0,0,1-.53,0,1.31,1.31,0,0,1-.82-.33,1,1,0,0,1-.41-.85,3.94,3.94,0,0,1,.19-1.15c.12-.43.21-.75.26-1q-2.85,3.41-4.47,3.41c-.68,0-1-.44-1.11-1.3v-.18a5.74,5.74,0,0,1,1.29-3,19.82,19.82,0,0,0-1.47,1.53.32.32,0,0,1-.25.1c-.06,0-.1,0-.1-.13a1,1,0,0,1,.23-.43l3.42-4.12a1.81,1.81,0,0,1,1.32-.76c.44,0,.67.16.67.46a.46.46,0,0,1-.15.33,21.35,21.35,0,0,0-2.5,3.13,6.91,6.91,0,0,0-1.5,3.22c0,.31.1.46.3.46.7,0,1.7-.7,3-2.11.46-.47,1.32-1.52,2.58-3.14s2.08-2.42,2.48-2.42c.6,0,.9.23.9.71a4.74,4.74,0,0,1-1,1.47c-.94,1.17-1.66,2.12-2.16,2.86a3.61,3.61,0,0,0-.74,1.79c0,.46.12.69.37.69a1.12,1.12,0,0,0,.4-.1,13.2,13.2,0,0,0,4.09-3.56.41.41,0,0,1,.3-.18c.1,0,.15.06.15.17a.64.64,0,0,1-.17.37,26,26,0,0,1-2.51,2.55A6.26,6.26,0,0,1,124.87,157.53Z" transform="translate(-51.24 -91.62)"/><path class="cls-1" d="M129.44,156.11c0,.5.27.76.82.76a4.1,4.1,0,0,0,2.11-.89,12,12,0,0,0,2.51-2.41c.2-.28.35-.41.47-.41s.17.05.17.15a6.22,6.22,0,0,1-1,1.32q-2.48,2.81-4.14,2.8A2.33,2.33,0,0,1,129,157a1.37,1.37,0,0,1-.57-1.22,5.38,5.38,0,0,1,.42-1.91,33.23,33.23,0,0,1,2.31-4.35q2.91-4.83,4.12-4.83a1,1,0,0,1,.51.19.61.61,0,0,1,.28.42l-2.19,3q-1.64,2.23-2.25,3.21l-.93,1.46c-.21.32-.36.57-.46.75s-.21.41-.35.7A3.76,3.76,0,0,0,129.44,156.11Z" transform="translate(-51.24 -91.62)"/><path class="cls-1" d="M135.47,156.11c0,.5.28.76.82.76a4.1,4.1,0,0,0,2.11-.89,12,12,0,0,0,2.51-2.41c.2-.28.35-.41.47-.41s.17.05.17.15a6.36,6.36,0,0,1-1,1.32q-2.49,2.81-4.15,2.8A2.33,2.33,0,0,1,135,157a1.37,1.37,0,0,1-.57-1.22,5.38,5.38,0,0,1,.42-1.91,33.23,33.23,0,0,1,2.31-4.35q2.91-4.83,4.12-4.83a1,1,0,0,1,.51.19.61.61,0,0,1,.28.42l-2.19,3q-1.63,2.23-2.25,3.21L136.7,153c-.21.32-.36.57-.46.75s-.21.41-.35.7A3.76,3.76,0,0,0,135.47,156.11Z" transform="translate(-51.24 -91.62)"/><path class="cls-1" d="M146.34,157.66q-1.26,0-1.26-1.68a8.17,8.17,0,0,1,1.46-3.8c1-1.62,1.76-2.43,2.36-2.45a1.12,1.12,0,0,1,.56.2c.2.14.31.27.31.41s-.18.25-.3.39l-.37.47c-.14.17-.32.41-.55.73l-.67.9q-1.86,2.46-1.86,3.39c0,.62.21.93.62.93a2.93,2.93,0,0,0,1.42-.59,12.8,12.8,0,0,0,3.3-2.89c.29-.39.5-.59.6-.59s.17.07.17.21-.19.4-.58.81l-.9,1c-.22.24-.38.4-.46.47l-.46.44a4.43,4.43,0,0,1-.51.44l-.49.38a3.2,3.2,0,0,1-.58.37l-.57.27A3.08,3.08,0,0,1,146.34,157.66Zm5.2-10.41a.68.68,0,0,1,.34.57.72.72,0,0,1-.31.57,1.11,1.11,0,0,1-.69.24,1,1,0,0,1-.68-.27.87.87,0,0,1-.31-.64c0-.47.32-.71.94-.71A1.19,1.19,0,0,1,151.54,147.25Z" transform="translate(-51.24 -91.62)"/><path class="cls-1" d="M157.54,149.19l3.57-.05s.07.06.07.08-1,.36-3.09.63-3.17.44-3.33.49a14.3,14.3,0,0,0-1.74,2.58,7.32,7.32,0,0,0-1.27,3.14c0,.62.42.94,1.27.94a4.4,4.4,0,0,0,1.56-.39,8.78,8.78,0,0,0,1.49-.71,15.53,15.53,0,0,0,3-2.61c.23-.24.39-.36.47-.36s.08,0,.08.15a1.48,1.48,0,0,1-.38.61,11.15,11.15,0,0,1-2.9,2.62,7,7,0,0,1-3.7,1.22,2.1,2.1,0,0,1-1.25-.34,1.6,1.6,0,0,1-.49-1.39,7.08,7.08,0,0,1,.9-2.86c.59-1.21,1.05-2.11,1.36-2.7a2.82,2.82,0,0,1-.59.07c-.48,0-.72-.19-.72-.58s.2-.49.59-.61l.23,0h1.44l1-1.34c.47-.61.78-.92,1-.92a1.46,1.46,0,0,1,.62.2c.25.14.37.3.37.49a5.67,5.67,0,0,1-1.19,1.65C156.28,149.19,156.84,149.19,157.54,149.19Z" transform="translate(-51.24 -91.62)"/><path class="cls-1" d="M183.5,148.33q0,3.18-3.18,6.07a15.79,15.79,0,0,1-10.94,4.48q-.67,0-1,0a4.64,4.64,0,0,1-3.19-1.33,4.39,4.39,0,0,1-1.2-3.19,10.64,10.64,0,0,1,1-4.27,17.07,17.07,0,0,1,14-8.85,6.05,6.05,0,0,1,3.77,1,3,3,0,0,1,1.29,2.46,5.22,5.22,0,0,1-.69,2.26A5.15,5.15,0,0,1,183.5,148.33Zm-.52-2.16a3.7,3.7,0,0,0,.24-1.36,2.74,2.74,0,0,0-.54-1.54c-.71-1-2-1.52-3.77-1.52a12,12,0,0,0-7.08,2.37,16.72,16.72,0,0,0-5.19,6,10.34,10.34,0,0,0-1.36,4.7c0,2.24,1.1,3.41,3.3,3.53.23,0,.46,0,.7,0q4.89,0,9.3-4,3.18-2.9,3.43-5.52a21.76,21.76,0,0,1-4.47,3.46l-.2,0s0,0,0,0,.22-.29.67-.68l1.39-1.17a23.82,23.82,0,0,0,2.6-2.62,3.6,3.6,0,0,0-1.25-2.37,6.64,6.64,0,0,0-2.47-1.39,11.33,11.33,0,0,0-2.15-.23,8.08,8.08,0,0,1-1.45-.1.16.16,0,0,1,.05-.1,6.75,6.75,0,0,1,2.2-.38,10.47,10.47,0,0,1,2.42.33A5.31,5.31,0,0,1,183,146.17Z" transform="translate(-51.24 -91.62)"/><path class="cls-1" d="M192.93,145c0,.53-.15.79-.45.79-.08,0-.16-.07-.25-.21a.77.77,0,0,0-.74-.4c-.76,0-1.47.56-2.14,1.67-.13.23-.54,1-1.24,2.39h.3c1.8,0,3,0,3.6-.07.07,0,.1,0,.1.1s-.59.32-1.76.56-2,.35-2.73.48c-.52,1.09-1.14,2.37-1.87,3.86-1.48,2.85-2.47,4.62-2.95,5.32-1.44,2.1-2.84,3.15-4.22,3.15a1.6,1.6,0,0,1-1.25-.63,2.16,2.16,0,0,1-.56-1.38c0-.2.12-.31.22-.31s.09.06.1.18a2.13,2.13,0,0,0,.5,1,1,1,0,0,0,.72.35q2.12,0,3.85-2.66a42.13,42.13,0,0,0,2.7-5.49l1.34-3.31c-1.65,0-2.48-.22-2.48-.61a.52.52,0,0,1,.24-.43.69.69,0,0,1,.41-.18l2.33.05q2.43-5.53,4.47-5.54a2.31,2.31,0,0,1,1.56.77A.72.72,0,0,1,192.93,145Z" transform="translate(-51.24 -91.62)"/><path class="cls-1" d="M198.93,145c0,.53-.14.79-.44.79-.09,0-.17-.07-.25-.21a.79.79,0,0,0-.75-.4c-.76,0-1.47.56-2.13,1.67-.13.23-.55,1-1.24,2.39h.3c1.8,0,3,0,3.6-.07a.1.1,0,0,1,.09.1c0,.14-.58.32-1.76.56s-2,.35-2.73.48c-.51,1.09-1.13,2.37-1.86,3.86q-2.23,4.27-2.95,5.32-2.16,3.15-4.22,3.15a1.62,1.62,0,0,1-1.26-.63,2.15,2.15,0,0,1-.55-1.38c.05-.2.12-.31.22-.31s.08.06.1.18a2,2,0,0,0,.5,1,1,1,0,0,0,.72.35q2.1,0,3.84-2.66a41.83,41.83,0,0,0,2.71-5.49l1.34-3.31c-1.66,0-2.48-.22-2.48-.61a.51.51,0,0,1,.23-.43.72.72,0,0,1,.41-.18l2.33.05c1.63-3.69,3.11-5.54,4.47-5.54a2.33,2.33,0,0,1,1.57.77A.72.72,0,0,1,198.93,145Z" transform="translate(-51.24 -91.62)"/><path class="cls-1" d="M106,113.75a19.36,19.36,0,0,0-21.11,0,9.84,9.84,0,0,0,0,16.89,19.31,19.31,0,0,0,21.11,0,9.84,9.84,0,0,0,0-16.89ZM95.42,129.32c-6,0-11-3.26-11-7.12s5-7.13,11-7.13,11,3.26,11,7.13S101.38,129.32,95.42,129.32Z" transform="translate(-51.24 -91.62)"/><path class="cls-1" d="M101.26,99.91a22.06,22.06,0,0,0-13.21-.24C84,101,80.39,103.63,76.3,105a33.93,33.93,0,0,1-5.78,1.36c-4.38.64-9.41.53-13.2-2.1S51.16,96,53,91.62c-2,4.89-2.87,11.09.91,15.36,6.61,7.47,18.25,5.66,26.19,1.75,3.94-1.94,7.83-4.14,12.17-5,7.91-1.47,20.43.27,24.14,8.9C113.52,106.06,107.88,101.9,101.26,99.91Z" transform="translate(-51.24 -91.62)"/><path class="cls-1" d="M71.86,131.57c-1.44-6.46.26-16.68,8.69-19.71a20.07,20.07,0,0,0-12.47,12.33A15.2,15.2,0,0,0,67.85,135c1.33,3.34,3.87,6.25,5.19,9.59a24.78,24.78,0,0,1,1.33,4.72c.62,3.58.52,7.68-2.05,10.78s-8.07,5-12.33,3.56c4.78,1.65,10.83,2.34,15-.74,7.3-5.4,5.53-14.91,1.71-21.39C74.8,138.29,72.65,135.11,71.86,131.57Z" transform="translate(-51.24 -91.62)"/></svg>